<svg width="628" height="119" viewBox="0 0 628 119" fill="none" xmlns="http://www.w3.org/2000/svg">
<path fill-rule="evenodd" clip-rule="evenodd" d="M110.094 52.8385C116.024 50.5046 120.486 45.3298 121.738 39.0256C122.991 45.3298 127.453 50.5046 133.382 52.8385C127.453 55.1724 122.991 60.3472 121.738 66.6514C120.486 60.3472 116.024 55.1724 110.094 52.8385ZM121.738 73.8941C120.022 82.5284 112.288 89.0442 103.005 89.0442C92.4631 89.0442 83.9171 80.6399 83.9171 70.2727C83.9171 62.369 88.8841 55.6063 95.9159 52.8385C88.8841 50.0707 83.9171 43.308 83.9171 35.4043C83.9171 25.0371 92.4631 16.6328 103.005 16.6328C112.288 16.6328 120.022 23.1486 121.738 31.7829C123.454 23.1486 131.189 16.6328 140.472 16.6328C151.014 16.6328 159.56 25.0371 159.56 35.4043C159.56 43.308 154.593 50.0707 147.561 52.8385C154.593 55.6063 159.56 62.369 159.56 70.2727C159.56 80.6399 151.014 89.0442 140.472 89.0442C131.189 89.0442 123.454 82.5284 121.738 73.8941Z" fill="#FF3D00"/>
<path d="M48.146 42.0142H68.1005V58.3722H76.8016V75.8904H68.1005V89H48.146V75.8904H4.64058V41.2021C24.8271 38.8818 36.6606 27.1643 37.8207 7.20983H57.8912C56.8471 34.9373 40.257 52.5715 11.9495 58.3722H48.146V42.0142Z" fill="#FF3D00"/>
<path d="M212.887 42.0142H232.841V58.3722H241.542V75.8904H232.841V89H212.887V75.8904H169.381V41.2021C189.568 38.8818 201.401 27.1643 202.561 7.20983H222.632C221.588 34.9373 204.998 52.5715 176.69 58.3722H212.887V42.0142Z" fill="#FF3D00"/>
<path d="M290.71 82.6621V16.6752H343.218V31.5574H307.838V42.602H338.538V56.6417H307.838V67.78H343.218V82.6621H290.71ZM352.865 82.6621V16.6752H381.974C396.95 16.6752 411.551 19.6704 411.551 34.1781C411.551 44.7547 404.531 49.3411 397.698 50.8386H400.038C409.117 50.8386 412.3 56.5481 412.3 62.632V82.6621H395.358V60.2921H369.993V82.6621H352.865ZM369.993 45.5035H381.974C389.555 45.5035 394.61 45.2227 394.61 38.5772C394.61 31.7446 389.181 31.5574 381.974 31.5574H369.993V45.5035ZM421.51 82.6621V16.6752H450.619C465.595 16.6752 480.196 19.6704 480.196 34.1781C480.196 44.7547 473.176 49.3411 466.343 50.8386H468.683C477.762 50.8386 480.945 56.5481 480.945 62.632V82.6621H464.003V60.2921H438.638V82.6621H421.51ZM438.638 45.5035H450.619C458.2 45.5035 463.255 45.2227 463.255 38.5772C463.255 31.7446 457.826 31.5574 450.619 31.5574H438.638V45.5035ZM487.077 49.6219C487.077 30.1534 500.274 15.3648 521.802 15.3648C543.236 15.3648 556.34 30.1534 556.34 49.6219C556.34 69.1839 543.236 83.9725 521.802 83.9725C500.274 83.9725 487.077 69.1839 487.077 49.6219ZM504.673 49.6219C504.673 61.6025 510.383 68.5287 521.802 68.5287C533.221 68.5287 538.837 61.6025 538.837 49.6219C538.837 37.6413 533.127 30.8086 521.802 30.8086C510.383 30.8086 504.673 37.7349 504.673 49.6219ZM564.375 82.6621V16.6752H593.484C608.46 16.6752 623.061 19.6704 623.061 34.1781C623.061 44.7547 616.042 49.3411 609.209 50.8386H611.549C620.628 50.8386 623.81 56.5481 623.81 62.632V82.6621H606.869V60.2921H581.504V82.6621H564.375ZM581.504 45.5035H593.484C601.066 45.5035 606.12 45.2227 606.12 38.5772C606.12 31.7446 600.691 31.5574 593.484 31.5574H581.504V45.5035Z" fill="#FF3D00"/>
</svg>
