<svg width="4" height="18" viewBox="0 0 4 18" fill="none" xmlns="http://www.w3.org/2000/svg">
<path fill-rule="evenodd" clip-rule="evenodd" d="M3.04346 1.52174C3.04346 2.36217 2.36218 3.04347 1.52173 3.04347C0.681274 3.04347 0 2.36217 0 1.52174C0 0.681305 0.681274 0 1.52173 0C2.36218 0 3.04346 0.681305 3.04346 1.52174ZM3.04346 8.52174C3.04346 9.36217 2.36218 10.0435 1.52173 10.0435C0.681274 10.0435 0 9.36217 0 8.52174C0 7.6813 0.681274 7 1.52173 7C2.36218 7 3.04346 7.6813 3.04346 8.52174ZM1.52173 17.0435C2.36218 17.0435 3.04346 16.3622 3.04346 15.5217C3.04346 14.6813 2.36218 14 1.52173 14C0.681274 14 0 14.6813 0 15.5217C0 16.3622 0.681274 17.0435 1.52173 17.0435Z" fill="#6D6D6D"/>
</svg>
