<?xml version="1.0" encoding="UTF-8"?>
<svg id="_레이어_1" data-name="레이어 1" xmlns="http://www.w3.org/2000/svg" viewBox="0 0 595.28 184.55">
  <defs>
    <style>
      .cls-1 {
        fill: #ff3d00;
        stroke-width: 0px;
      }
    </style>
  </defs>
  <g>
    <path class="cls-1" d="m288.16,87.2l-.09-45.88-21.58,37.97h-5.44l-21.58-37.38v45.29h-11.63V17.98h10.04l26.08,45.88,25.61-45.88h10.04l.09,69.22h-11.54Z"/>
    <path class="cls-1" d="m449.97,21.95v65.21h-9.55l-34.46-44.16v44.16h-11.52V21.95h9.55l34.46,44.16V21.95h11.52Z"/>
    <path class="cls-1" d="m515.27,80.65c-5.91,4.47-15.67,7.03-26.36,7.03-19.42,0-29.46-7.85-29.46-18.62,0-7.3,4.6-12.6,11.07-14.97-5.16-2.65-8.26-7.67-8.26-13.69,0-9.86,9.01-18.44,28.05-18.44,8.35,0,16.6,1.83,22.42,4.75l-3.47,9.4c-5.91-3.01-12.1-4.2-18.48-4.2-11.07,0-16.23,3.83-16.23,9.22s4.03,8.4,11.82,8.4h17.35v9.86h-18.01c-8.63,0-13.98,2.83-13.98,8.86,0,5.66,5.44,9.49,17.73,9.49,8.25,0,16.51-2.28,21.86-6.21l3.94,9.13Z"/>
    <path class="cls-1" d="m571,23.48v39.42c0,17.04-9.72,26.04-25.12,26.04-9.48,0-17.14-3-22.28-7.95l4.19-8.11c4.9,4.54,10.9,6.81,17.93,6.81,9.88,0,15.01-5.19,15.01-16.31v-4.3c-3.87,5.03-9.48,7.3-16.27,7.3-13.9,0-22.04-8.36-22.04-23.85v-19.06h10.27v18.58c0,10.14,5.14,15.17,13.35,15.17s14.69-5.11,14.69-16.22v-17.52h10.27Z"/>
    <path class="cls-1" d="m371.97,53.46c6.75-2.49,11.53-8.57,11.53-15.68,0-9.32-8.2-16.88-18.32-16.88-8.91,0-16.32,5.86-17.97,13.62-1.65-7.76-9.07-13.62-17.97-13.62-10.12,0-18.32,7.56-18.32,16.88,0,7.11,4.77,13.19,11.53,15.68-6.75,2.49-11.53,8.57-11.53,15.68,0,9.32,8.2,16.88,18.32,16.88,8.91,0,16.32-5.86,17.97-13.62,1.65,7.76,9.07,13.62,17.97,13.62,10.12,0,18.32-7.56,18.32-16.88,0-7.11-4.77-13.19-11.53-15.68Zm-24.76,12.42c-1.2-5.67-5.49-10.33-11.18-12.42,5.69-2.1,9.98-6.75,11.18-12.42,1.2,5.67,5.49,10.33,11.18,12.42-5.69,2.1-9.98,6.75-11.18,12.42Z"/>
  </g>
  <g>
    <path class="cls-1" d="m425.08,134.28c6.83-2.49,11.66-8.57,11.66-15.68,0-9.32-8.29-16.88-18.52-16.88-9.01,0-16.51,5.86-18.17,13.62-1.67-7.76-9.17-13.62-18.17-13.62-10.23,0-18.52,7.56-18.52,16.88,0,7.11,4.83,13.19,11.66,15.68-6.83,2.49-11.66,8.57-11.66,15.68,0,9.32,8.29,16.88,18.52,16.88,9.01,0,16.51-5.86,18.17-13.62,1.67,7.76,9.17,13.62,18.17,13.62,10.23,0,18.52-7.56,18.52-16.88,0-7.11-4.83-13.2-11.66-15.68Zm-25.04,12.42c-1.22-5.67-5.55-10.33-11.31-12.42,5.76-2.1,10.09-6.75,11.31-12.42,1.22,5.67,5.55,10.33,11.31,12.42-5.76,2.1-10.09,6.75-11.31,12.42Z"/>
    <path class="cls-1" d="m293.97,131.62h12.75v35.25h-10.98v-5.59c-5.52,3.27-13.53,5.76-21.59,5.76-20.98,0-39.31-12.13-39.31-34.17,0-20.6,17.67-35.13,41.85-35.13,12.92,0,23.74,3.75,31.02,10.97l-9.05,7.7c-6.07-5.29-13.03-7.7-21.31-7.7-16.45,0-28.04,9.72-28.04,24.06,0,15.49,12.48,23.58,26.17,23.58,6.4,0,13.64-1.73,18.5-5.29v-19.44Z"/>
    <path class="cls-1" d="m500.53,101.71l-24.31,65.16h-12.11l-24.41-65.16h13.08l17.63,47.28,17.82-47.28h12.3Z"/>
    <path class="cls-1" d="m318.28,101.28h12.35v53.54h28.81v11.94h-41.16v-65.48Z"/>
    <path class="cls-1" d="m559.52,156.75v10.15h-50.85v-65.19h49.49v10.15h-36.9v16.95h32.74v9.96h-32.74v17.97h38.26Z"/>
  </g>
  <path class="cls-1" d="m161.64,95.67c15.72-5.83,26.83-20.08,26.83-36.74,0-21.85-19.08-39.56-42.62-39.56-20.72,0-37.99,13.73-41.82,31.92-3.83-18.19-21.1-31.92-41.82-31.92-23.54,0-42.62,17.71-42.62,39.56,0,16.67,11.11,30.92,26.83,36.74-15.72,5.83-26.83,20.08-26.83,36.74,0,21.85,19.08,39.56,42.62,39.56,20.72,0,37.99-13.73,41.82-31.92,3.83,18.19,21.1,31.92,41.82,31.92,23.54,0,42.62-17.71,42.62-39.56,0-16.67-11.11-30.92-26.83-36.74Zm-57.62,29.11c-2.8-13.29-12.77-24.19-26.03-29.11,13.25-4.91,23.22-15.81,26.03-29.11,2.8,13.29,12.77,24.19,26.03,29.11-13.25,4.91-23.22,15.81-26.03,29.11Z"/>
</svg>