<svg width="68" height="68" viewBox="0 0 68 68" fill="none" xmlns="http://www.w3.org/2000/svg">
<g id="raphael:people">
<path id="Vector" d="M44.7652 43.9173C47.3726 42.4681 47.0347 36.8836 44.0129 31.4351C42.7167 29.0891 41.1229 27.1893 39.5292 25.8612C37.6234 27.2756 35.3149 28.0426 32.9417 28.05C30.5649 28.0447 28.2523 27.2776 26.3436 25.8612C24.7498 27.1893 23.1603 29.0912 21.8598 31.4351C18.8359 36.8815 18.5023 42.4681 21.1161 43.9173C22.2806 44.5803 23.5088 44.0831 24.7753 42.8633C24.5382 44.1775 24.4194 45.5102 24.4204 46.8456C24.4204 53.0888 26.8429 58.1336 29.8243 58.1336C31.6221 58.1336 32.5124 56.2955 32.9396 53.4841C33.3646 56.2763 34.2571 58.1336 36.0421 58.1336C39.0107 58.1336 41.4523 53.0867 41.4523 46.8456C41.4523 45.4431 41.3206 44.1043 41.0953 42.8655C42.3703 44.0873 43.5943 44.5931 44.7631 43.9216L44.7652 43.9173ZM32.9374 25.925C34.1431 25.943 35.3403 25.721 36.4594 25.272C37.5784 24.8229 38.597 24.1558 39.4558 23.3095C40.3146 22.4631 40.9965 21.4543 41.4618 20.3419C41.9271 19.2295 42.1665 18.0357 42.1661 16.8299C42.1657 15.6241 41.9254 14.4305 41.4594 13.3184C40.9933 12.2063 40.3107 11.1981 39.4513 10.3523C38.5919 9.50652 37.5728 8.84011 36.4534 8.39187C35.3341 7.94363 34.1367 7.7225 32.9311 7.74135C30.5438 7.77867 28.2671 8.7534 26.5924 10.4551C24.9177 12.1567 23.9795 14.4488 23.9803 16.8363C23.9812 19.2238 24.921 21.5152 26.5969 23.2157C28.2727 24.9162 30.5502 25.8893 32.9374 25.925ZM51.1997 31.6922C53.1415 31.6355 54.9848 30.8242 56.3383 29.4306C57.6917 28.037 58.4488 26.1708 58.4488 24.2282C58.4488 22.2855 57.6917 20.4193 56.3383 19.0257C54.9848 17.6321 53.1415 16.8209 51.1997 16.7641C49.2195 16.7644 47.3206 17.5513 45.9206 18.9516C44.5206 20.352 43.7343 22.2512 43.7346 24.2313C43.7348 26.2115 44.5217 28.1104 45.9221 29.5104C47.3225 30.9104 49.2217 31.6968 51.2018 31.6965L51.1997 31.6922ZM60.2947 36.2185C59.2279 34.289 57.9232 32.7292 56.6142 31.6391C55.0484 32.7992 53.1527 33.4284 51.2039 33.4347C49.5974 33.4347 48.1014 32.9948 46.7924 32.266C47.8464 34.5886 48.4988 36.941 48.6199 39.0447C48.8197 42.2662 47.8124 44.6547 45.7979 45.7703C45.3662 46.0076 44.8968 46.1686 44.4103 46.2463C44.2892 47.0793 44.2063 47.9463 44.2063 48.8601C44.2063 53.9877 46.1932 58.1293 48.6433 58.1293C50.1181 58.1293 50.8533 56.6206 51.2018 54.3128C51.5482 56.6078 52.2813 58.1293 53.7518 58.1293C56.1849 58.1293 58.1931 53.9856 58.1931 48.8643C58.1931 47.7105 58.0804 46.6118 57.8956 45.5918C58.9411 46.597 59.9483 47.0113 60.9088 46.4588C63.0487 45.2688 62.7724 40.6831 60.2926 36.2163L60.2947 36.2185ZM14.6752 31.6922C16.1511 31.6914 17.5935 31.253 18.8203 30.4324C20.047 29.6119 21.0029 28.446 21.5671 27.0822C22.1313 25.7185 22.2785 24.2181 21.99 22.7707C21.7016 21.3233 20.9905 19.9939 19.9466 18.9506C18.9027 17.9073 17.5729 17.1969 16.1253 16.9093C14.6778 16.6217 13.1774 16.7697 11.814 17.3347C10.4506 17.8997 9.28524 18.8562 8.46539 20.0834C7.64553 21.3106 7.20794 22.7534 7.20794 24.2292C7.2085 26.2095 7.99541 28.1085 9.39567 29.5087C10.7959 30.909 12.6949 31.6959 14.6752 31.6965V31.6922ZM20.0621 45.764C16.6791 43.8833 16.3688 38.2755 19.0931 32.2617C17.7465 33.0262 16.2257 33.4309 14.6773 33.4368C12.6458 33.4368 10.7843 32.7568 9.25856 31.6391C7.95169 32.7271 6.64906 34.2868 5.57806 36.2142C3.09819 40.6852 2.82619 45.271 4.96819 46.4567C5.92444 47.005 6.93381 46.5948 7.97294 45.594C7.78207 46.6729 7.68608 47.7665 7.68606 48.8622C7.68606 53.9877 9.67294 58.1272 12.1231 58.1272C13.5978 58.1272 14.3331 56.6185 14.6816 54.3128C15.0322 56.6078 15.7653 58.1293 17.2316 58.1293C19.6689 58.1293 21.6728 53.9856 21.6728 48.8643C21.6728 47.9442 21.5878 47.0751 21.4667 46.2421C20.9749 46.1646 20.5003 46.0021 20.0642 45.7618L20.0621 45.764Z" fill="#FF3D00"/>
</g>
</svg>
