<svg width="14" height="17" viewBox="0 0 14 17" fill="none" xmlns="http://www.w3.org/2000/svg">
<g id="Vector">
<path d="M10.5 15.1786H3.5C3.03587 15.1786 2.59075 14.9867 2.26256 14.6451C1.93437 14.3035 1.75 13.8402 1.75 13.3571V3.64286C1.75 3.15978 1.93437 2.6965 2.26256 2.35491C2.59075 2.01333 3.03587 1.82143 3.5 1.82143H6.7165C6.94643 1.82148 7.17411 1.86869 7.3865 1.96037C7.59889 2.05204 7.79185 2.18638 7.95433 2.35571L11.7378 6.29243C12.0657 6.63388 12.2499 7.09684 12.25 7.57957V13.3571C12.25 13.8402 12.0656 14.3035 11.7374 14.6451C11.4092 14.9867 10.9641 15.1786 10.5 15.1786ZM12.9745 5.00407C13.2997 5.34241 13.5576 5.74411 13.7336 6.18624C13.9095 6.62836 14.0001 7.10223 14 7.58079V13.3571C14 14.3233 13.6313 15.2499 12.9749 15.933C12.3185 16.6162 11.4283 17 10.5 17H3.5C2.57174 17 1.6815 16.6162 1.02513 15.933C0.368749 15.2499 0 14.3233 0 13.3571V3.64286C0 2.67671 0.368749 1.75014 1.02513 1.06697C1.6815 0.3838 2.57174 0 3.5 0H6.7165C7.17629 -5.72949e-05 7.63158 0.0941765 8.05636 0.277318C8.48115 0.460459 8.8671 0.728918 9.19217 1.06736L12.9733 5.00286L12.9745 5.00407ZM6.41667 12.4464C6.03352 12.4469 5.65404 12.3687 5.29996 12.2163C4.94589 12.0639 4.62417 11.8403 4.35324 11.5584C4.08232 11.2764 3.86749 10.9415 3.72108 10.573C3.57467 10.2045 3.49954 9.8095 3.5 9.41071C3.50011 8.95064 3.60069 8.4966 3.79414 8.08292C3.98759 7.66925 4.26885 7.30674 4.61666 7.02281C4.96448 6.73888 5.36975 6.54094 5.80185 6.44396C6.23395 6.34698 6.68158 6.35349 7.11091 6.463C7.54024 6.57251 7.94004 6.78216 8.2801 7.0761C8.62015 7.37003 8.89157 7.74058 9.07384 8.15972C9.25611 8.57886 9.34446 9.03564 9.33221 9.49554C9.31997 9.95544 9.20745 10.4064 9.00317 10.8144L9.95167 11.8029C10.0376 11.8862 10.1066 11.9868 10.1544 12.0985C10.2022 12.2102 10.228 12.3308 10.23 12.4531C10.2321 12.5754 10.2105 12.6968 10.1665 12.8102C10.1225 12.9236 10.057 13.0266 9.97388 13.1131C9.89079 13.1996 9.79182 13.2678 9.68286 13.3136C9.57391 13.3594 9.45721 13.3819 9.33972 13.3797C9.22224 13.3776 9.10637 13.3508 8.99904 13.301C8.89171 13.2512 8.79511 13.1795 8.715 13.09L7.76533 12.1028C7.34908 12.3291 6.8863 12.447 6.41667 12.4464ZM7.58333 9.41071C7.58333 9.73276 7.46042 10.0416 7.24162 10.2693C7.02283 10.4971 6.72609 10.625 6.41667 10.625C6.10725 10.625 5.8105 10.4971 5.59171 10.2693C5.37292 10.0416 5.25 9.73276 5.25 9.41071C5.25 9.08867 5.37292 8.77981 5.59171 8.55208C5.8105 8.32436 6.10725 8.19643 6.41667 8.19643C6.72609 8.19643 7.02283 8.32436 7.24162 8.55208C7.46042 8.77981 7.58333 9.08867 7.58333 9.41071Z" fill="#FF6A3B"/>
<path d="M10.5 15.1786H3.5C3.03587 15.1786 2.59075 14.9867 2.26256 14.6451C1.93437 14.3035 1.75 13.8402 1.75 13.3571V3.64286C1.75 3.15978 1.93437 2.6965 2.26256 2.35491C2.59075 2.01333 3.03587 1.82143 3.5 1.82143H6.7165C6.94643 1.82148 7.17411 1.86869 7.3865 1.96037C7.59889 2.05204 7.79185 2.18638 7.95433 2.35571L11.7378 6.29243C12.0657 6.63388 12.2499 7.09684 12.25 7.57957V13.3571C12.25 13.8402 12.0656 14.3035 11.7374 14.6451C11.4092 14.9867 10.9641 15.1786 10.5 15.1786ZM12.9745 5.00407C13.2997 5.34241 13.5576 5.74411 13.7336 6.18624C13.9095 6.62836 14.0001 7.10223 14 7.58079V13.3571C14 14.3233 13.6313 15.2499 12.9749 15.933C12.3185 16.6162 11.4283 17 10.5 17H3.5C2.57174 17 1.6815 16.6162 1.02513 15.933C0.368749 15.2499 0 14.3233 0 13.3571V3.64286C0 2.67671 0.368749 1.75014 1.02513 1.06697C1.6815 0.3838 2.57174 0 3.5 0H6.7165C7.17629 -5.72949e-05 7.63158 0.0941765 8.05636 0.277318C8.48115 0.460459 8.8671 0.728918 9.19217 1.06736L12.9733 5.00286L12.9745 5.00407ZM6.41667 12.4464C6.03352 12.4469 5.65404 12.3687 5.29996 12.2163C4.94589 12.0639 4.62417 11.8403 4.35324 11.5584C4.08232 11.2764 3.86749 10.9415 3.72108 10.573C3.57467 10.2045 3.49954 9.8095 3.5 9.41071C3.50011 8.95064 3.60069 8.4966 3.79414 8.08292C3.98759 7.66925 4.26885 7.30674 4.61666 7.02281C4.96448 6.73888 5.36975 6.54094 5.80185 6.44396C6.23395 6.34698 6.68158 6.35349 7.11091 6.463C7.54024 6.57251 7.94004 6.78216 8.2801 7.0761C8.62015 7.37003 8.89157 7.74058 9.07384 8.15972C9.25611 8.57886 9.34446 9.03564 9.33221 9.49554C9.31997 9.95544 9.20745 10.4064 9.00317 10.8144L9.95167 11.8029C10.0376 11.8862 10.1066 11.9868 10.1544 12.0985C10.2022 12.2102 10.228 12.3308 10.23 12.4531C10.2321 12.5754 10.2105 12.6968 10.1665 12.8102C10.1225 12.9236 10.057 13.0266 9.97388 13.1131C9.89079 13.1996 9.79182 13.2678 9.68286 13.3136C9.57391 13.3594 9.45721 13.3819 9.33972 13.3797C9.22224 13.3776 9.10637 13.3508 8.99904 13.301C8.89171 13.2512 8.79511 13.1795 8.715 13.09L7.76533 12.1028C7.34908 12.3291 6.8863 12.447 6.41667 12.4464ZM7.58333 9.41071C7.58333 9.73276 7.46042 10.0416 7.24162 10.2693C7.02283 10.4971 6.72609 10.625 6.41667 10.625C6.10725 10.625 5.8105 10.4971 5.59171 10.2693C5.37292 10.0416 5.25 9.73276 5.25 9.41071C5.25 9.08867 5.37292 8.77981 5.59171 8.55208C5.8105 8.32436 6.10725 8.19643 6.41667 8.19643C6.72609 8.19643 7.02283 8.32436 7.24162 8.55208C7.46042 8.77981 7.58333 9.08867 7.58333 9.41071Z" stroke="black"/>
</g>
</svg>
