<svg width="168" height="73" viewBox="0 0 168 73" fill="none" xmlns="http://www.w3.org/2000/svg">
<g id="Union">
<path fill-rule="evenodd" clip-rule="evenodd" d="M7.1751 1C6.07053 1 5.1751 1.89543 5.1751 3V58C5.1751 59.1046 6.07054 60 7.17511 60H17.5214C12.713 67.0398 5.0416 70.8386 1 72C14.5729 71.1875 24.125 65.4387 29.8508 60H164.999C166.104 60 166.999 59.1046 166.999 58V3C166.999 1.89543 166.104 1 164.999 1H7.1751Z" fill="#FAFAFA"/>
<path d="M17.5214 60L17.9343 60.282L18.4684 59.5H17.5214V60ZM1 72L0.861913 71.5194L1.02988 72.4991L1 72ZM29.8508 60V59.5H29.6511L29.5064 59.6375L29.8508 60ZM5.6751 3C5.6751 2.17157 6.34667 1.5 7.1751 1.5V0.5C5.79439 0.5 4.6751 1.61929 4.6751 3H5.6751ZM5.6751 58V3H4.6751V58H5.6751ZM7.17511 59.5C6.34668 59.5 5.6751 58.8284 5.6751 58H4.6751C4.6751 59.3807 5.79439 60.5 7.17511 60.5V59.5ZM17.5214 59.5H7.17511V60.5H17.5214V59.5ZM17.1085 59.718C12.3834 66.6358 4.82581 70.3804 0.861913 71.5194L1.13809 72.4806C5.2574 71.2969 13.0426 67.4437 17.9343 60.282L17.1085 59.718ZM1.02988 72.4991C14.7363 71.6786 24.3962 65.8707 30.1951 60.3625L29.5064 59.6375C23.8538 65.0067 14.4094 70.6964 0.970121 71.5009L1.02988 72.4991ZM164.999 59.5H29.8508V60.5H164.999V59.5ZM166.499 58C166.499 58.8284 165.827 59.5 164.999 59.5V60.5C166.38 60.5 167.499 59.3807 167.499 58H166.499ZM166.499 3V58H167.499V3H166.499ZM164.999 1.5C165.827 1.5 166.499 2.17157 166.499 3H167.499C167.499 1.61929 166.38 0.5 164.999 0.5V1.5ZM7.1751 1.5H164.999V0.5H7.1751V1.5Z" fill="#FF3D00"/>
</g>
</svg>
